<svg width="720" height="720" viewBox="0 0 720 720" fill="none" xmlns="http://www.w3.org/2000/svg">
<path d="M558.667 364.106C558.667 372.699 551.749 379.731 543.077 379.731H525.052C453.828 379.731 409.886 422.992 409.886 498.383V690.375C409.886 698.969 402.968 706 394.296 706H350.256C341.682 706 334.667 699.067 334.667 690.375V330.414C334.667 321.82 341.585 314.789 350.256 314.789H390.691C398.778 314.789 405.501 321.039 406.183 329.144C407.255 342.23 423.234 348.481 432.49 339.106C452.854 318.5 482.474 306 518.622 306C528.073 306 536.452 306.782 545.708 308.344C553.113 309.614 558.57 316.156 558.57 323.676V364.106H558.667Z" fill="#D02964"/>
<path d="M602.918 124.901C557.54 85.1024 486.886 76.6967 433.997 105.764C410.318 75.1587 382.073 46.9494 347.068 30.4483C312.062 13.9353 269.391 10.5135 235.041 28.35C200.692 46.1864 178.194 87.8565 188.745 125.091C171.29 134.88 160.107 154.91 160.941 174.905C161.776 194.899 174.593 213.928 192.799 222.214C146.634 203.341 112.094 227.913 88.0099 256.659C63.914 285.405 60.9095 328.827 77.3868 362.521C93.8641 396.215 127.689 419.834 164.328 427.834C200.966 435.834 239.906 429.193 273.922 413.384C310.99 396.167 344.099 366.325 356.034 327.242C390.753 376.614 453.371 405.229 513.283 397.956C573.195 390.683 627.563 347.26 646.759 290.031C665.966 232.79 648.308 164.687 602.918 124.901Z" fill="#FAFAFA"/>
<path d="M602.918 124.901C602.978 124.841 603.657 125.378 604.957 126.51C606.447 127.834 608.307 129.503 610.668 131.625C615.425 136.394 622.448 143.655 629.565 154.612C636.779 165.45 644.278 179.877 649.584 197.987C654.842 216.014 657.775 237.952 654.83 261.989C652.231 286.025 642.43 311.969 624.951 335.135C607.532 358.253 582.328 378.725 551.186 390.826C520.198 403.285 482.927 405.241 447.243 394.773C411.653 384.424 377.316 361.997 353.709 328.887L358.788 328.077C350.835 353.997 333.368 376.948 311.264 394.057C289.159 411.309 262.702 423.673 234.314 430.04C205.997 436.323 175.117 436.133 146.538 425.867C118.222 415.697 92.0874 396.012 77.0289 368.435C56.5456 331.498 60.2059 282.496 88.0694 251.914C101.184 236.891 117.03 223.49 136.082 216.873C155.111 209.97 176.179 212.14 193.944 219.448L191.571 224.945C171.576 215.716 158.426 195.042 158.02 173.868C157.686 152.645 169.633 132.579 187.362 122.623L186.015 125.878C181.115 108.292 183.428 89.7643 190.057 73.8832C196.734 57.9067 207.702 44.3624 220.805 34.2877C247.751 14.2336 281.755 10.931 310.608 16.2844C339.986 21.5661 365.143 35.8376 385.435 52.0883C405.799 68.5179 421.871 86.9863 435.475 104.644L433.102 104.155C458.76 90.4201 485.229 86.4737 507.584 87.1771C530.094 87.9402 548.813 93.353 563.084 99.3144C577.403 105.383 587.288 112.227 593.738 116.948C596.897 119.428 599.151 121.479 600.701 122.802C602.239 124.114 602.978 124.829 602.918 124.901C602.859 124.972 602 124.376 600.367 123.172C598.519 121.789 596.134 120 593.129 117.747C586.512 113.324 576.569 106.838 562.309 101.139C548.109 95.5468 529.593 90.5154 507.488 90.0623C485.539 89.645 459.702 93.8181 434.891 107.398L433.496 108.161L432.506 106.909C418.855 89.5259 402.807 71.4271 382.717 55.4625C362.675 39.6529 338.137 25.9894 309.726 21.0534C281.802 16.022 249.229 19.5273 224.001 38.5084C211.685 48.0704 201.336 60.947 195.124 75.9935C188.936 90.9566 186.909 108.185 191.464 124.316L192.072 126.474L190.116 127.571C174.295 136.454 163.445 154.839 163.851 173.736C164.196 192.562 176.238 211.388 194.027 219.484L191.655 224.98C174.832 218.149 155.612 216.229 138.061 222.608C120.463 228.736 105.369 241.374 92.6834 255.956C66.6321 284.427 63.1626 330.711 82.4536 365.454C96.6298 391.47 121.537 410.332 148.601 420.061C175.857 429.873 205.58 430.159 232.991 424.103C260.484 417.998 286.25 406.004 307.592 389.395C328.993 372.906 345.673 350.956 353.291 326.407L355.02 320.851L358.382 325.597C381.047 357.597 414.252 379.499 448.733 389.681C483.321 399.959 519.316 398.266 549.456 386.355C579.764 374.79 604.48 355.022 621.613 332.619C638.818 310.157 648.594 285.035 651.372 261.559C654.496 238.095 651.897 216.527 646.985 198.727C642.025 180.842 634.895 166.499 628.016 155.626C614.173 133.724 602.251 125.485 602.918 124.901Z" fill="#263238"/>
<path d="M209.372 294.514C198.761 283.616 187.16 278.716 187.172 263.515C167.929 259.771 149.651 272.731 135.332 286.12C124.923 295.861 114.944 306.46 108.732 319.301C102.52 332.13 100.493 347.606 106.181 360.685C108.97 367.1 115.409 373.383 122.085 371.308C125.758 370.164 128.679 366.658 132.518 366.718C138.372 366.813 140.458 374.229 143.475 379.237C148.327 387.309 159.726 390.611 168.155 386.403C176.584 382.194 180.769 371.094 177.24 362.366C187.673 371.618 204.543 365.776 214.964 356.524C221.7 350.539 227.53 342.873 228.794 333.954C230.94 318.896 219.983 305.411 209.372 294.514Z" fill="#D02964"/>
<path d="M419.188 102.867C419.534 102.784 420.691 105.598 421.74 110.963C422.849 116.328 423.361 124.34 422.288 134.117C420.405 153.849 409.722 179.197 395.438 204.819C381.214 230.369 370.305 254.441 367.336 273.16C363.998 291.807 367.122 303.611 365.953 303.778C365.608 303.861 364.463 301.048 363.438 295.67C362.353 290.305 361.887 282.281 362.996 272.516C364.952 252.784 375.706 227.484 389.977 201.85C404.189 176.312 415.039 152.204 417.936 133.485C421.203 114.85 418.008 103.046 419.188 102.867Z" fill="#263238"/>
<path d="M358.168 126.629C355.819 116.388 364.094 98.1458 364.201 94.9744C364.463 87.2007 349.619 89.6092 343.086 93.8299C336.552 98.0505 331.855 104.632 325.452 109.055C308.247 120.918 283.484 114.492 265.481 125.079C252.604 132.65 245.915 147.256 239.99 160.955C237.677 166.308 235.602 173.2 239.68 177.373C242.493 180.246 244.151 176.347 247.882 174.869C251.626 173.39 256.574 169.897 260.211 168.18C285.07 156.448 309.416 157.497 339.425 174.225C345.506 160.478 362.115 147.888 376.851 150.844C369.066 144.549 360.409 136.382 358.168 126.629Z" fill="#D02964"/>
<path d="M376.851 216.36C375.706 217.004 371.139 203.293 354.829 188.556C346.793 181.224 335.705 174.07 322.161 169.373C308.688 164.651 292.58 162.827 276.52 166.13C260.508 169.73 246.582 178.017 236.245 187.865C225.825 197.713 218.659 208.801 214.367 218.793C205.568 238.942 207.047 253.309 205.735 253.19C205.389 253.213 204.757 249.756 204.841 243.413C204.9 237.07 206.272 227.83 210.301 217.123C214.296 206.429 221.437 194.446 232.275 183.751C243.029 173.069 257.873 163.948 275.221 160.061C292.628 156.472 309.892 158.678 324.092 163.984C338.376 169.277 349.81 177.254 357.846 185.361C365.929 193.457 370.984 201.326 373.643 207.072C376.326 212.819 377.172 216.229 376.851 216.36Z" fill="#263238"/>
<path d="M382.907 79.4152C383.337 80.3214 378.496 82.7297 373.226 89.0368C367.968 95.1889 362.555 105.729 361.411 118.069C359.741 130.564 367.348 139.506 373.858 144.68C380.344 149.986 384.875 153.038 384.386 153.861C384.004 154.505 378.854 152.919 371.259 148.221C367.527 145.825 363.116 142.415 359.646 137.133C356.081 131.875 354.508 124.543 355.223 117.544C356.522 103.511 363.318 92.0892 370.067 85.9966C376.863 79.761 382.729 78.7476 382.907 79.4152Z" fill="#263238"/>
<path d="M178.205 364.751C178.324 363.594 188.256 367.934 202.48 362.486C209.359 359.767 216.739 354.163 220.721 345.281C224.799 336.589 225.526 325.06 220.423 315.176C215.344 305.125 206.665 297.554 199.559 289.769C192.333 282.078 186.551 273.637 184.738 265.291C182.843 257.053 184.441 249.994 186.718 245.953C188.971 241.815 191.368 240.504 191.57 240.754C191.964 241.1 190.271 242.96 188.924 246.93C187.54 250.829 186.813 257.076 188.983 264.182C191.058 271.264 196.506 278.609 203.72 285.846C210.754 293.19 220.054 300.821 225.991 312.422C232.036 324.166 230.951 337.877 225.884 347.773C220.924 358.003 211.851 364.191 203.982 366.623C187.54 371.499 177.621 365.061 178.205 364.751Z" fill="#263238"/>
<g opacity="0.3">
<path d="M421.06 117.973C419.63 140.96 410.914 162.851 400.779 183.525C390.645 204.199 377.673 223.752 370.889 245.75C364.093 267.819 360.659 281.375 365.941 303.778C365.226 292.26 367.419 273.732 371.271 262.847C375.169 251.794 383.253 241.767 390.24 232.575C410.496 205.951 414.992 200.062 423.004 178.398C429.347 161.289 426.032 144.192 421.06 117.973Z" fill="black"/>
</g>
<path d="M253.075 400.667C302.293 400.667 339.231 424.179 357.12 460.232C358.183 462.387 358.667 464.836 358.667 467.286V496.872C358.667 510.784 341.648 518.132 332.269 507.845C312.446 486.194 283.244 474.633 246.693 474.633H228.804C220.295 474.633 213.333 467.677 213.333 458.958V418.399C213.333 410.855 218.748 404.193 226.097 403.018C235.38 401.45 243.696 400.667 253.075 400.667Z" fill="#D02964"/>
</svg>
